<svg width="27" height="19" viewBox="0 0 27 19" fill="none" xmlns="http://www.w3.org/2000/svg">
<path d="M17.3589 1H20.2823M5.5 15L12.3828 15.4878M20.2823 1V1C22.8588 1 24.9474 3.08862 24.9474 5.66507V7.46697C24.9474 8.39831 24.1924 9.15331 23.2611 9.15331V9.15331C20.0014 9.15331 17.3589 11.7958 17.3589 15.0555V15.4878H12.3828M20.2823 1V3.40324C20.2823 3.84251 19.9262 4.19861 19.487 4.19861H18.6858C18.3633 4.19861 18.0634 4.36444 17.8919 4.63763V4.63763M11.3254 10.9094C11.3254 10.9094 12.2413 9.82615 13.1914 9.4669C13.2315 9.45174 13.2714 9.43729 13.311 9.42353C14.3442 9.06471 15.4208 8.57438 16.0023 7.64808V7.64808M12.3828 15.4878V15.361C12.3828 11.1013 8.92961 7.64808 4.66988 7.64808V7.64808H4.44271C2.74748 7.64808 1.37323 6.27383 1.37323 4.5786V4.5786C1.37323 4.47265 1.45912 4.38676 1.56507 4.38676H6.99236C7.42294 4.38676 7.84145 4.52631 8.1944 4.77296C8.56429 5.03145 9.08777 5.38525 9.64596 5.72439M16.0023 7.64808C16.0023 7.64808 12.9322 7.28847 11.1388 6.51916C10.6699 6.31802 10.1441 6.02704 9.64596 5.72439M16.0023 7.64808L17.8919 4.63763M9.64596 5.72439C9.64596 5.72439 10.579 3.00697 13.5646 2.7561C16.5503 2.50523 17.8919 4.63763 17.8919 4.63763" stroke="#1E1E1E" stroke-width="2" stroke-linecap="round" stroke-linejoin="round"/>
<path d="M8.45933 14.7352C8.45933 16.5461 7.00558 18 5.22967 18C3.45376 18 2 16.5461 2 14.7352C2 12.9243 3.45376 11.4704 5.22967 11.4704C7.00558 11.4704 8.45933 12.9243 8.45933 14.7352Z" stroke="#1E1E1E" stroke-width="2" stroke-linecap="round" stroke-linejoin="round"/>
<path d="M26 15.4878C26 16.8831 24.8804 18 23.5168 18C22.1531 18 21.0335 16.8831 21.0335 15.4878C21.0335 14.0925 22.1531 12.9756 23.5168 12.9756C24.8804 12.9756 26 14.0925 26 15.4878Z" stroke="#1E1E1E" stroke-width="2" stroke-linecap="round" stroke-linejoin="round"/>
<path d="M23.5167 15.5505L19.5359 10.5331" stroke="#1E1E1E" stroke-width="2" stroke-linecap="round" stroke-linejoin="round"/>
</svg>
